<svg xmlns="http://www.w3.org/2000/svg" xmlns:xlink="http://www.w3.org/1999/xlink" width="500" zoomAndPan="magnify" viewBox="0 0 375 374.999991" height="500" preserveAspectRatio="xMidYMid meet" version="1.0"><defs><clipPath id="5e942788eb"><path d="M 103 38.347656 L 169 38.347656 L 169 104 L 103 104 Z M 103 38.347656 " clip-rule="nonzero"/></clipPath><clipPath id="87797485ed"><path d="M 205 38.347656 L 271 38.347656 L 271 104 L 205 104 Z M 205 38.347656 " clip-rule="nonzero"/></clipPath><clipPath id="c1f2371ad0"><path d="M 129 240 L 247 240 L 247 337.597656 L 129 337.597656 Z M 129 240 " clip-rule="nonzero"/></clipPath><clipPath id="778c374cfd"><path d="M 24.917969 200 L 141 200 L 141 299 L 24.917969 299 Z M 24.917969 200 " clip-rule="nonzero"/></clipPath><clipPath id="6a5d3d445b"><path d="M 235 200 L 350.417969 200 L 350.417969 299 L 235 299 Z M 235 200 " clip-rule="nonzero"/></clipPath></defs><g clip-path="url(#5e942788eb)"><path fill="#ffffff" d="M 168.136719 70.875 C 168.136719 71.941406 168.085938 73.003906 167.980469 74.0625 C 167.875 75.125 167.71875 76.175781 167.511719 77.21875 C 167.304688 78.265625 167.046875 79.296875 166.734375 80.316406 C 166.425781 81.335938 166.066406 82.339844 165.660156 83.324219 C 165.25 84.304688 164.796875 85.269531 164.292969 86.207031 C 163.792969 87.148438 163.242188 88.058594 162.652344 88.945312 C 162.058594 89.832031 161.425781 90.6875 160.75 91.507812 C 160.074219 92.332031 159.359375 93.121094 158.605469 93.875 C 157.851562 94.628906 157.0625 95.34375 156.238281 96.019531 C 155.414062 96.695312 154.558594 97.328125 153.671875 97.921875 C 152.785156 98.511719 151.871094 99.058594 150.929688 99.5625 C 149.992188 100.0625 149.027344 100.519531 148.042969 100.925781 C 147.058594 101.332031 146.054688 101.691406 145.035156 102 C 144.015625 102.308594 142.984375 102.570312 141.9375 102.777344 C 140.890625 102.984375 139.839844 103.140625 138.777344 103.246094 C 137.71875 103.351562 136.652344 103.402344 135.585938 103.402344 C 134.523438 103.402344 133.457031 103.351562 132.398438 103.246094 C 131.335938 103.140625 130.28125 102.984375 129.238281 102.777344 C 128.191406 102.570312 127.160156 102.308594 126.140625 102 C 125.117188 101.691406 124.117188 101.332031 123.132812 100.925781 C 122.148438 100.519531 121.183594 100.0625 120.242188 99.5625 C 119.304688 99.058594 118.390625 98.511719 117.503906 97.921875 C 116.617188 97.328125 115.761719 96.695312 114.9375 96.019531 C 114.113281 95.34375 113.324219 94.628906 112.570312 93.875 C 111.816406 93.121094 111.101562 92.332031 110.425781 91.507812 C 109.75 90.6875 109.117188 89.832031 108.523438 88.945312 C 107.929688 88.058594 107.382812 87.148438 106.882812 86.207031 C 106.378906 85.269531 105.921875 84.304688 105.515625 83.324219 C 105.109375 82.339844 104.75 81.335938 104.441406 80.316406 C 104.128906 79.296875 103.871094 78.265625 103.664062 77.21875 C 103.457031 76.175781 103.300781 75.125 103.195312 74.0625 C 103.089844 73.003906 103.039062 71.941406 103.039062 70.875 C 103.039062 69.808594 103.089844 68.746094 103.195312 67.6875 C 103.300781 66.625 103.457031 65.574219 103.664062 64.527344 C 103.871094 63.484375 104.128906 62.453125 104.441406 61.433594 C 104.75 60.414062 105.109375 59.410156 105.515625 58.425781 C 105.921875 57.441406 106.378906 56.480469 106.882812 55.542969 C 107.382812 54.601562 107.929688 53.6875 108.523438 52.804688 C 109.117188 51.917969 109.75 51.0625 110.425781 50.238281 C 111.101562 49.417969 111.816406 48.628906 112.570312 47.875 C 113.324219 47.121094 114.113281 46.40625 114.9375 45.730469 C 115.761719 45.054688 116.617188 44.421875 117.503906 43.828125 C 118.390625 43.238281 119.304688 42.691406 120.242188 42.1875 C 121.183594 41.6875 122.148438 41.230469 123.132812 40.824219 C 124.117188 40.414062 125.117188 40.058594 126.140625 39.75 C 127.160156 39.4375 128.191406 39.179688 129.238281 38.972656 C 130.28125 38.765625 131.335938 38.609375 132.398438 38.503906 C 133.457031 38.398438 134.523438 38.347656 135.585938 38.347656 C 136.652344 38.347656 137.71875 38.398438 138.777344 38.503906 C 139.839844 38.609375 140.890625 38.765625 141.9375 38.972656 C 142.984375 39.179688 144.015625 39.4375 145.035156 39.75 C 146.054688 40.058594 147.058594 40.414062 148.042969 40.824219 C 149.027344 41.230469 149.992188 41.6875 150.929688 42.1875 C 151.871094 42.691406 152.785156 43.238281 153.671875 43.828125 C 154.558594 44.421875 155.414062 45.054688 156.238281 45.730469 C 157.0625 46.40625 157.851562 47.121094 158.605469 47.875 C 159.359375 48.628906 160.074219 49.417969 160.75 50.238281 C 161.425781 51.0625 162.058594 51.917969 162.652344 52.804688 C 163.242188 53.6875 163.792969 54.601562 164.292969 55.542969 C 164.796875 56.480469 165.25 57.441406 165.660156 58.425781 C 166.066406 59.410156 166.425781 60.414062 166.734375 61.433594 C 167.046875 62.453125 167.304688 63.484375 167.511719 64.527344 C 167.71875 65.574219 167.875 66.625 167.980469 67.6875 C 168.085938 68.746094 168.136719 69.808594 168.136719 70.875 Z M 168.136719 70.875 " fill-opacity="1" fill-rule="nonzero"/></g><g clip-path="url(#87797485ed)"><path fill="#ffffff" d="M 270.996094 70.875 C 270.996094 71.941406 270.941406 73.003906 270.835938 74.0625 C 270.734375 75.125 270.578125 76.175781 270.367188 77.21875 C 270.160156 78.265625 269.902344 79.296875 269.59375 80.316406 C 269.285156 81.335938 268.925781 82.339844 268.515625 83.324219 C 268.109375 84.304688 267.652344 85.269531 267.152344 86.207031 C 266.648438 87.148438 266.101562 88.058594 265.507812 88.945312 C 264.917969 89.832031 264.28125 90.6875 263.605469 91.507812 C 262.929688 92.332031 262.214844 93.121094 261.460938 93.875 C 260.707031 94.628906 259.917969 95.34375 259.09375 96.019531 C 258.269531 96.695312 257.414062 97.328125 256.527344 97.921875 C 255.640625 98.511719 254.730469 99.058594 253.789062 99.5625 C 252.847656 100.0625 251.886719 100.519531 250.902344 100.925781 C 249.914062 101.332031 248.914062 101.691406 247.894531 102 C 246.875 102.308594 245.839844 102.570312 244.792969 102.777344 C 243.75 102.984375 242.695312 103.140625 241.636719 103.246094 C 240.574219 103.351562 239.511719 103.402344 238.445312 103.402344 C 237.378906 103.402344 236.316406 103.351562 235.253906 103.246094 C 234.191406 103.140625 233.140625 102.984375 232.09375 102.777344 C 231.050781 102.570312 230.015625 102.308594 228.996094 102 C 227.976562 101.691406 226.972656 101.332031 225.988281 100.925781 C 225.003906 100.519531 224.039062 100.0625 223.101562 99.5625 C 222.160156 99.058594 221.246094 98.511719 220.359375 97.921875 C 219.472656 97.328125 218.621094 96.695312 217.796875 96.019531 C 216.972656 95.34375 216.183594 94.628906 215.429688 93.875 C 214.675781 93.121094 213.960938 92.332031 213.285156 91.507812 C 212.605469 90.6875 211.972656 89.832031 211.378906 88.945312 C 210.789062 88.058594 210.242188 87.148438 209.738281 86.207031 C 209.234375 85.269531 208.78125 84.304688 208.371094 83.324219 C 207.964844 82.339844 207.605469 81.335938 207.296875 80.316406 C 206.988281 79.296875 206.726562 78.265625 206.519531 77.21875 C 206.3125 76.175781 206.15625 75.125 206.050781 74.0625 C 205.945312 73.003906 205.894531 71.941406 205.894531 70.875 C 205.894531 69.808594 205.945312 68.746094 206.050781 67.6875 C 206.15625 66.625 206.3125 65.574219 206.519531 64.527344 C 206.726562 63.484375 206.988281 62.453125 207.296875 61.433594 C 207.605469 60.414062 207.964844 59.410156 208.371094 58.425781 C 208.78125 57.441406 209.234375 56.480469 209.738281 55.542969 C 210.242188 54.601562 210.789062 53.6875 211.378906 52.804688 C 211.972656 51.917969 212.605469 51.0625 213.285156 50.238281 C 213.960938 49.417969 214.675781 48.628906 215.429688 47.875 C 216.183594 47.121094 216.972656 46.40625 217.796875 45.730469 C 218.621094 45.054688 219.472656 44.421875 220.359375 43.828125 C 221.246094 43.238281 222.160156 42.691406 223.101562 42.1875 C 224.039062 41.6875 225.003906 41.230469 225.988281 40.824219 C 226.972656 40.414062 227.976562 40.058594 228.996094 39.75 C 230.015625 39.4375 231.050781 39.179688 232.09375 38.972656 C 233.140625 38.765625 234.191406 38.609375 235.253906 38.503906 C 236.316406 38.398438 237.378906 38.347656 238.445312 38.347656 C 239.511719 38.347656 240.574219 38.398438 241.636719 38.503906 C 242.695312 38.609375 243.75 38.765625 244.792969 38.972656 C 245.839844 39.179688 246.875 39.4375 247.894531 39.75 C 248.914062 40.058594 249.914062 40.414062 250.902344 40.824219 C 251.886719 41.230469 252.847656 41.6875 253.789062 42.1875 C 254.730469 42.691406 255.640625 43.238281 256.527344 43.828125 C 257.414062 44.421875 258.269531 45.054688 259.09375 45.730469 C 259.917969 46.40625 260.707031 47.121094 261.460938 47.875 C 262.214844 48.628906 262.929688 49.417969 263.605469 50.238281 C 264.28125 51.0625 264.917969 51.917969 265.507812 52.804688 C 266.101562 53.6875 266.648438 54.601562 267.152344 55.542969 C 267.652344 56.480469 268.109375 57.441406 268.515625 58.425781 C 268.925781 59.410156 269.285156 60.414062 269.59375 61.433594 C 269.902344 62.453125 270.160156 63.484375 270.367188 64.527344 C 270.578125 65.574219 270.734375 66.625 270.835938 67.6875 C 270.941406 68.746094 270.996094 69.808594 270.996094 70.875 Z M 270.996094 70.875 " fill-opacity="1" fill-rule="nonzero"/></g><path fill="#ffffff" d="M 226.902344 194.652344 C 226.902344 195.933594 226.839844 197.207031 226.714844 198.480469 C 226.589844 199.75 226.402344 201.015625 226.152344 202.269531 C 225.902344 203.523438 225.59375 204.761719 225.21875 205.984375 C 224.847656 207.207031 224.417969 208.410156 223.929688 209.589844 C 223.441406 210.773438 222.894531 211.925781 222.289062 213.054688 C 221.6875 214.179688 221.03125 215.277344 220.320312 216.339844 C 219.609375 217.402344 218.847656 218.425781 218.035156 219.414062 C 217.226562 220.402344 216.367188 221.351562 215.460938 222.253906 C 214.558594 223.15625 213.609375 224.015625 212.621094 224.828125 C 211.632812 225.636719 210.605469 226.398438 209.542969 227.109375 C 208.480469 227.816406 207.382812 228.476562 206.253906 229.078125 C 205.128906 229.679688 203.972656 230.226562 202.789062 230.714844 C 201.609375 231.203125 200.40625 231.632812 199.179688 232.003906 C 197.957031 232.375 196.71875 232.6875 195.464844 232.9375 C 194.207031 233.1875 192.945312 233.371094 191.671875 233.5 C 190.398438 233.625 189.121094 233.6875 187.84375 233.6875 C 186.5625 233.6875 185.289062 233.625 184.015625 233.5 C 182.742188 233.371094 181.476562 233.1875 180.222656 232.9375 C 178.96875 232.6875 177.730469 232.375 176.503906 232.003906 C 175.28125 231.632812 174.078125 231.203125 172.894531 230.714844 C 171.714844 230.226562 170.558594 229.679688 169.429688 229.078125 C 168.300781 228.476562 167.207031 227.816406 166.140625 227.109375 C 165.078125 226.398438 164.050781 225.636719 163.0625 224.828125 C 162.074219 224.015625 161.128906 223.15625 160.222656 222.253906 C 159.320312 221.351562 158.460938 220.402344 157.648438 219.414062 C 156.835938 218.425781 156.078125 217.402344 155.367188 216.339844 C 154.65625 215.277344 154 214.179688 153.394531 213.054688 C 152.792969 211.925781 152.246094 210.773438 151.757812 209.589844 C 151.265625 208.410156 150.835938 207.207031 150.464844 205.984375 C 150.09375 204.761719 149.785156 203.523438 149.535156 202.269531 C 149.285156 201.015625 149.097656 199.75 148.972656 198.480469 C 148.847656 197.207031 148.785156 195.933594 148.785156 194.652344 C 148.785156 193.375 148.847656 192.101562 148.972656 190.828125 C 149.097656 189.554688 149.285156 188.292969 149.535156 187.039062 C 149.785156 185.785156 150.09375 184.546875 150.464844 183.324219 C 150.835938 182.101562 151.265625 180.898438 151.757812 179.714844 C 152.246094 178.535156 152.792969 177.382812 153.394531 176.253906 C 154 175.125 154.65625 174.03125 155.367188 172.96875 C 156.078125 171.90625 156.835938 170.878906 157.648438 169.890625 C 158.460938 168.902344 159.320312 167.957031 160.222656 167.054688 C 161.128906 166.148438 162.074219 165.292969 163.0625 164.480469 C 164.050781 163.671875 165.078125 162.910156 166.140625 162.199219 C 167.207031 161.488281 168.300781 160.832031 169.429688 160.230469 C 170.558594 159.628906 171.714844 159.082031 172.894531 158.59375 C 174.078125 158.101562 175.28125 157.671875 176.503906 157.300781 C 177.730469 156.929688 178.96875 156.621094 180.222656 156.371094 C 181.476562 156.121094 182.742188 155.933594 184.015625 155.808594 C 185.289062 155.683594 186.5625 155.621094 187.84375 155.621094 C 189.121094 155.621094 190.398438 155.683594 191.671875 155.808594 C 192.945312 155.933594 194.207031 156.121094 195.464844 156.371094 C 196.71875 156.621094 197.957031 156.929688 199.179688 157.300781 C 200.40625 157.671875 201.609375 158.101562 202.789062 158.59375 C 203.972656 159.082031 205.128906 159.628906 206.253906 160.230469 C 207.382812 160.832031 208.480469 161.488281 209.542969 162.199219 C 210.605469 162.910156 211.632812 163.671875 212.621094 164.480469 C 213.609375 165.292969 214.558594 166.148438 215.460938 167.054688 C 216.367188 167.957031 217.226562 168.902344 218.035156 169.890625 C 218.847656 170.878906 219.609375 171.90625 220.320312 172.96875 C 221.03125 174.03125 221.6875 175.125 222.289062 176.253906 C 222.894531 177.382812 223.441406 178.535156 223.929688 179.714844 C 224.417969 180.898438 224.847656 182.101562 225.21875 183.324219 C 225.59375 184.546875 225.902344 185.785156 226.152344 187.039062 C 226.402344 188.292969 226.589844 189.554688 226.714844 190.828125 C 226.839844 192.101562 226.902344 193.375 226.902344 194.652344 Z M 226.902344 194.652344 " fill-opacity="1" fill-rule="nonzero"/><g clip-path="url(#c1f2371ad0)"><path fill="#ffffff" d="M 187.84375 337.773438 C 147.769531 337.773438 133.367188 327.847656 131.859375 326.714844 C 130.21875 325.492188 129.253906 323.558594 129.253906 321.507812 L 129.253906 298.742188 C 129.253906 266.453125 155.539062 240.191406 187.84375 240.191406 C 220.152344 240.191406 246.433594 266.453125 246.433594 298.742188 L 246.433594 321.507812 C 246.433594 323.550781 245.46875 325.484375 243.828125 326.714844 C 242.324219 327.847656 227.917969 337.773438 187.84375 337.773438 Z M 187.84375 337.773438 " fill-opacity="1" fill-rule="nonzero"/></g><g clip-path="url(#778c374cfd)"><path fill="#ffffff" d="M 140.292969 245.382812 C 133.941406 219.925781 110.921875 200.984375 83.507812 200.984375 C 51.207031 200.984375 24.917969 227.246094 24.917969 259.53125 L 24.917969 282.300781 C 24.917969 284.34375 25.882812 286.277344 27.523438 287.503906 C 29.03125 288.636719 43.433594 298.566406 83.507812 298.566406 C 97.394531 298.566406 108.136719 297.363281 116.390625 295.753906 C 117.214844 275.75 126.273438 257.875 140.292969 245.382812 Z M 140.292969 245.382812 " fill-opacity="1" fill-rule="nonzero"/></g><g clip-path="url(#6a5d3d445b)"><path fill="#ffffff" d="M 291.824219 200.984375 C 264.503906 200.984375 241.554688 219.796875 235.105469 245.121094 C 249.308594 257.640625 258.488281 275.652344 259.308594 295.828125 C 267.519531 297.394531 278.140625 298.566406 291.824219 298.566406 C 331.894531 298.566406 346.300781 288.636719 347.8125 287.503906 C 349.453125 286.28125 350.414062 284.351562 350.414062 282.300781 L 350.414062 259.53125 C 350.414062 227.246094 324.136719 200.984375 291.824219 200.984375 Z M 291.824219 200.984375 " fill-opacity="1" fill-rule="nonzero"/></g><path fill="#ffffff" d="M 331.0625 155.621094 C 331.0625 156.898438 331 158.175781 330.875 159.445312 C 330.75 160.71875 330.5625 161.980469 330.3125 163.234375 C 330.0625 164.488281 329.75 165.726562 329.378906 166.953125 C 329.007812 168.175781 328.578125 169.378906 328.089844 170.558594 C 327.597656 171.738281 327.050781 172.894531 326.449219 174.019531 C 325.847656 175.148438 325.191406 176.242188 324.480469 177.304688 C 323.769531 178.371094 323.007812 179.394531 322.195312 180.382812 C 321.382812 181.371094 320.527344 182.316406 319.621094 183.222656 C 318.714844 184.125 317.769531 184.984375 316.78125 185.792969 C 315.792969 186.605469 314.765625 187.367188 313.703125 188.074219 C 312.636719 188.785156 311.542969 189.441406 310.414062 190.042969 C 309.285156 190.648438 308.132812 191.191406 306.949219 191.683594 C 305.765625 192.171875 304.566406 192.601562 303.339844 192.972656 C 302.117188 193.34375 300.875 193.652344 299.621094 193.902344 C 298.367188 194.152344 297.105469 194.339844 295.832031 194.464844 C 294.558594 194.589844 293.28125 194.652344 292 194.652344 C 290.722656 194.652344 289.445312 194.589844 288.171875 194.464844 C 286.898438 194.339844 285.636719 194.152344 284.382812 193.902344 C 283.128906 193.652344 281.886719 193.34375 280.664062 192.972656 C 279.4375 192.601562 278.234375 192.171875 277.054688 191.683594 C 275.871094 191.191406 274.71875 190.648438 273.589844 190.042969 C 272.460938 189.441406 271.367188 188.785156 270.300781 188.074219 C 269.238281 187.367188 268.210938 186.605469 267.222656 185.792969 C 266.234375 184.984375 265.289062 184.125 264.382812 183.222656 C 263.476562 182.316406 262.621094 181.371094 261.808594 180.382812 C 260.996094 179.394531 260.234375 178.371094 259.523438 177.304688 C 258.8125 176.242188 258.15625 175.148438 257.554688 174.019531 C 256.953125 172.894531 256.40625 171.738281 255.914062 170.558594 C 255.425781 169.378906 254.996094 168.175781 254.625 166.953125 C 254.253906 165.726562 253.941406 164.488281 253.691406 163.234375 C 253.441406 161.980469 253.253906 160.71875 253.128906 159.445312 C 253.003906 158.175781 252.941406 156.898438 252.941406 155.621094 C 252.941406 154.34375 253.003906 153.066406 253.128906 151.796875 C 253.253906 150.523438 253.441406 149.261719 253.691406 148.007812 C 253.941406 146.753906 254.253906 145.515625 254.625 144.289062 C 254.996094 143.066406 255.425781 141.863281 255.914062 140.683594 C 256.40625 139.503906 256.953125 138.347656 257.554688 137.222656 C 258.15625 136.09375 258.8125 135 259.523438 133.9375 C 260.234375 132.871094 260.996094 131.847656 261.808594 130.859375 C 262.621094 129.871094 263.476562 128.925781 264.382812 128.019531 C 265.289062 127.117188 266.234375 126.257812 267.222656 125.449219 C 268.210938 124.636719 269.238281 123.875 270.300781 123.167969 C 271.363281 122.457031 272.460938 121.800781 273.589844 121.199219 C 274.71875 120.59375 275.871094 120.046875 277.054688 119.558594 C 278.234375 119.070312 279.4375 118.640625 280.664062 118.269531 C 281.886719 117.898438 283.128906 117.585938 284.382812 117.339844 C 285.636719 117.089844 286.898438 116.902344 288.171875 116.777344 C 289.445312 116.652344 290.722656 116.589844 292 116.589844 C 293.28125 116.589844 294.558594 116.652344 295.832031 116.777344 C 297.105469 116.902344 298.367188 117.089844 299.621094 117.339844 C 300.875 117.585938 302.117188 117.898438 303.339844 118.269531 C 304.566406 118.640625 305.765625 119.070312 306.949219 119.558594 C 308.132812 120.046875 309.285156 120.59375 310.414062 121.199219 C 311.542969 121.800781 312.636719 122.457031 313.703125 123.167969 C 314.765625 123.875 315.792969 124.636719 316.78125 125.449219 C 317.769531 126.257812 318.714844 127.117188 319.621094 128.019531 C 320.527344 128.925781 321.382812 129.871094 322.195312 130.859375 C 323.007812 131.847656 323.769531 132.871094 324.480469 133.9375 C 325.191406 135 325.847656 136.09375 326.449219 137.222656 C 327.050781 138.347656 327.597656 139.503906 328.089844 140.683594 C 328.578125 141.863281 329.007812 143.066406 329.378906 144.289062 C 329.75 145.515625 330.0625 146.753906 330.3125 148.007812 C 330.5625 149.261719 330.75 150.523438 330.875 151.796875 C 331 153.066406 331.0625 154.34375 331.0625 155.621094 Z M 331.0625 155.621094 " fill-opacity="1" fill-rule="nonzero"/><path fill="#ffffff" d="M 122.742188 155.621094 C 122.742188 156.898438 122.679688 158.175781 122.554688 159.445312 C 122.429688 160.71875 122.242188 161.980469 121.992188 163.234375 C 121.742188 164.488281 121.433594 165.726562 121.0625 166.953125 C 120.691406 168.175781 120.261719 169.378906 119.769531 170.558594 C 119.28125 171.738281 118.734375 172.894531 118.132812 174.019531 C 117.527344 175.148438 116.871094 176.242188 116.160156 177.304688 C 115.449219 178.371094 114.6875 179.394531 113.878906 180.382812 C 113.066406 181.371094 112.207031 182.316406 111.304688 183.222656 C 110.398438 184.125 109.453125 184.984375 108.464844 185.792969 C 107.472656 186.605469 106.449219 187.367188 105.382812 188.074219 C 104.320312 188.785156 103.226562 189.441406 102.097656 190.042969 C 100.96875 190.648438 99.8125 191.191406 98.632812 191.683594 C 97.449219 192.171875 96.246094 192.601562 95.023438 192.972656 C 93.796875 193.34375 92.558594 193.652344 91.304688 193.902344 C 90.050781 194.152344 88.785156 194.339844 87.511719 194.464844 C 86.238281 194.589844 84.964844 194.652344 83.683594 194.652344 C 82.40625 194.652344 81.128906 194.589844 79.855469 194.464844 C 78.582031 194.339844 77.320312 194.152344 76.0625 193.902344 C 74.808594 193.652344 73.570312 193.34375 72.34375 192.972656 C 71.121094 192.601562 69.917969 192.171875 68.738281 191.683594 C 67.554688 191.191406 66.398438 190.648438 65.269531 190.042969 C 64.144531 189.441406 63.046875 188.785156 61.984375 188.074219 C 60.917969 187.367188 59.894531 186.605469 58.90625 185.792969 C 57.914062 184.984375 56.96875 184.125 56.066406 183.222656 C 55.160156 182.316406 54.300781 181.371094 53.492188 180.382812 C 52.679688 179.394531 51.917969 178.371094 51.207031 177.304688 C 50.496094 176.242188 49.839844 175.148438 49.238281 174.019531 C 48.632812 172.894531 48.085938 171.738281 47.597656 170.558594 C 47.109375 169.378906 46.675781 168.175781 46.304688 166.953125 C 45.933594 165.726562 45.625 164.488281 45.375 163.234375 C 45.125 161.980469 44.9375 160.71875 44.8125 159.445312 C 44.6875 158.175781 44.625 156.898438 44.625 155.621094 C 44.625 154.34375 44.6875 153.066406 44.8125 151.796875 C 44.9375 150.523438 45.125 149.261719 45.375 148.007812 C 45.625 146.753906 45.933594 145.515625 46.304688 144.289062 C 46.675781 143.066406 47.109375 141.863281 47.597656 140.683594 C 48.085938 139.503906 48.632812 138.347656 49.238281 137.222656 C 49.839844 136.09375 50.496094 135 51.207031 133.9375 C 51.917969 132.871094 52.679688 131.847656 53.492188 130.859375 C 54.300781 129.871094 55.160156 128.925781 56.066406 128.019531 C 56.96875 127.117188 57.914062 126.257812 58.90625 125.449219 C 59.894531 124.636719 60.917969 123.875 61.984375 123.167969 C 63.046875 122.457031 64.144531 121.800781 65.269531 121.199219 C 66.398438 120.59375 67.554688 120.046875 68.738281 119.558594 C 69.917969 119.070312 71.121094 118.640625 72.34375 118.269531 C 73.570312 117.898438 74.808594 117.585938 76.0625 117.339844 C 77.320312 117.089844 78.582031 116.902344 79.855469 116.777344 C 81.128906 116.652344 82.40625 116.589844 83.683594 116.589844 C 84.964844 116.589844 86.238281 116.652344 87.511719 116.777344 C 88.785156 116.902344 90.050781 117.089844 91.304688 117.339844 C 92.558594 117.585938 93.796875 117.898438 95.023438 118.269531 C 96.246094 118.640625 97.449219 119.070312 98.632812 119.558594 C 99.8125 120.046875 100.96875 120.59375 102.097656 121.199219 C 103.226562 121.800781 104.320312 122.457031 105.382812 123.167969 C 106.449219 123.875 107.472656 124.636719 108.464844 125.449219 C 109.453125 126.257812 110.398438 127.117188 111.304688 128.019531 C 112.207031 128.925781 113.066406 129.871094 113.878906 130.859375 C 114.6875 131.847656 115.449219 132.871094 116.160156 133.9375 C 116.871094 135 117.527344 136.09375 118.132812 137.222656 C 118.734375 138.347656 119.28125 139.503906 119.769531 140.683594 C 120.261719 141.863281 120.691406 143.066406 121.0625 144.289062 C 121.433594 145.515625 121.742188 146.753906 121.992188 148.007812 C 122.242188 149.261719 122.429688 150.523438 122.554688 151.796875 C 122.679688 153.066406 122.742188 154.34375 122.742188 155.621094 Z M 122.742188 155.621094 " fill-opacity="1" fill-rule="nonzero"/><path fill="#ffffff" d="M 239.921875 194.652344 C 239.921875 201.945312 238.40625 208.886719 235.683594 215.183594 C 242.03125 207.152344 250.046875 200.605469 259.121094 195.929688 C 247.414062 186.378906 239.929688 171.859375 239.929688 155.621094 C 239.929688 139.285156 247.511719 124.707031 259.328125 115.15625 C 253.105469 111.839844 246.082031 109.90625 238.445312 109.90625 C 217.359375 109.90625 199.945312 123.855469 194.632812 143.105469 C 220.140625 146.449219 239.921875 168.261719 239.921875 194.652344 Z M 239.921875 194.652344 " fill-opacity="1" fill-rule="nonzero"/><path fill="#ffffff" d="M 135.761719 155.621094 C 135.761719 171.917969 128.210938 186.484375 116.433594 196.03125 C 125.914062 200.949219 134.195312 207.929688 140.640625 216.5 C 137.539062 209.851562 135.761719 202.460938 135.761719 194.652344 C 135.761719 168.808594 154.734375 147.367188 179.472656 143.34375 C 174.242188 123.972656 156.765625 109.90625 135.585938 109.90625 C 128.347656 109.90625 121.636719 111.625 115.652344 114.628906 C 127.867188 124.160156 135.761719 138.972656 135.761719 155.621094 Z M 135.761719 155.621094 " fill-opacity="1" fill-rule="nonzero"/></svg>